<?xml version="1.0" encoding="utf-8"?>
<!-- Generator: Adobe Illustrator 26.0.3, SVG Export Plug-In . SVG Version: 6.00 Build 0)  -->
<svg version="1.1" id="Layer_1" xmlns="http://www.w3.org/2000/svg" xmlns:xlink="http://www.w3.org/1999/xlink" x="0px" y="0px"
	 viewBox="0 0 48 48" style="enable-background:new 0 0 48 48;" xml:space="preserve">
<path d="M27.3,24.5l8.5-8.5c0.8-0.8,0.8-2,0-2.8c-0.8-0.8-2-0.8-2.8,0l-8.5,8.5L16,13.2c-0.8-0.8-2.1-0.8-2.9,0
	c-0.8,0.8-0.8,2,0,2.8l8.6,8.6L13.2,33c-0.8,0.8-0.8,2,0,2.8c0.8,0.8,2,0.8,2.8,0l8.6-8.5l8.5,8.5c0.8,0.8,2,0.8,2.8,0
	c0.8-0.8,0.8-2,0-2.8L27.3,24.5z"/>
</svg>
