<svg width="49" height="49" viewBox="0 0 49 49" fill="none" xmlns="http://www.w3.org/2000/svg">
<path d="M13.8144 19.1667C13.078 19.1667 12.4811 18.5697 12.4811 17.8333C12.4811 17.097 13.078 16.5 13.8144 16.5H35.1477C35.8841 16.5 36.4811 17.097 36.4811 17.8333C36.4811 18.5697 35.8841 19.1667 35.1477 19.1667H13.8144Z" fill="white"/>
<path d="M12.4811 24.5C12.4811 25.2364 13.078 25.8333 13.8144 25.8333H35.1477C35.8841 25.8333 36.4811 25.2364 36.4811 24.5C36.4811 23.7636 35.8841 23.1667 35.1477 23.1667H13.8144C13.078 23.1667 12.4811 23.7636 12.4811 24.5Z" fill="white"/>
<path d="M19.1477 31.1667C19.1477 31.903 19.7447 32.5 20.4811 32.5H35.1477C35.8841 32.5 36.4811 31.903 36.4811 31.1667C36.4811 30.4303 35.8841 29.8333 35.1477 29.8333H20.4811C19.7447 29.8333 19.1477 30.4303 19.1477 31.1667Z" fill="white"/>
</svg>
