<?xml version="1.0" encoding="utf-8"?>
<!-- Generator: Adobe Illustrator 26.0.3, SVG Export Plug-In . SVG Version: 6.00 Build 0)  -->
<svg version="1.1" id="Layer_1" xmlns="http://www.w3.org/2000/svg" xmlns:xlink="http://www.w3.org/1999/xlink" x="0px" y="0px"
	 viewBox="0 0 49 49" style="enable-background:new 0 0 49 49;" xml:space="preserve">
<g>
	<path d="M13.8,19.2h21.3c0.7,0,1.3-0.6,1.3-1.3c0-0.7-0.6-1.3-1.3-1.3H13.8c-0.7,0-1.3,0.6-1.3,1.3C12.5,18.6,13.1,19.2,13.8,19.2z
		"/>
	<path d="M35.2,23.2H13.8c-0.7,0-1.3,0.6-1.3,1.3s0.6,1.3,1.3,1.3h21.3c0.7,0,1.3-0.6,1.3-1.3S35.9,23.2,35.2,23.2z"/>
	<path d="M35.2,29.8H20.5c-0.7,0-1.3,0.6-1.3,1.3c0,0.7,0.6,1.3,1.3,1.3h14.7c0.7,0,1.3-0.6,1.3-1.3C36.5,30.4,35.9,29.8,35.2,29.8z
		"/>
</g>
</svg>
