<svg width="128" height="129" viewBox="0 0 128 129" fill="none" xmlns="http://www.w3.org/2000/svg">
<g clip-path="url(#clip0_107_16449)">
<path d="M108.357 24.4832C100.197 20.8032 91.4508 18.0832 82.3041 16.5365C82.2227 16.5208 82.1383 16.5309 82.0629 16.5653C81.9874 16.5997 81.9244 16.6567 81.8828 16.7285C80.7628 18.6965 79.5148 21.2618 78.6401 23.2885C68.9393 21.8391 59.077 21.8391 49.3761 23.2885C48.4019 21.0424 47.3033 18.8523 46.0855 16.7285C46.0442 16.6559 45.9817 16.5976 45.9064 16.5613C45.8312 16.5251 45.7466 16.5127 45.6641 16.5258C36.5228 18.0725 27.7761 20.7925 19.6108 24.4778C19.5405 24.5073 19.481 24.5575 19.4401 24.6218C2.84279 49.0218 -1.70654 72.8191 0.528122 96.3178C0.53434 96.3754 0.552205 96.4311 0.580628 96.4815C0.609052 96.5319 0.647439 96.576 0.693455 96.6112C10.3809 103.664 21.1859 109.037 32.6561 112.504C32.7361 112.529 32.8216 112.529 32.9015 112.504C32.9814 112.48 33.0521 112.431 33.1041 112.366C35.5681 109.059 37.7655 105.566 39.6428 101.896C39.7548 101.683 39.6481 101.427 39.4241 101.342C35.9788 100.044 32.6406 98.4787 29.4401 96.6591C29.3826 96.6263 29.3342 96.5797 29.2991 96.5236C29.264 96.4674 29.2435 96.4034 29.2392 96.3373C29.235 96.2712 29.2472 96.2051 29.2749 96.1449C29.3025 96.0848 29.3446 96.0324 29.3975 95.9925C30.0695 95.4965 30.7415 94.9792 31.3815 94.4618C31.4391 94.4153 31.5085 94.3857 31.5819 94.3763C31.6554 94.3668 31.73 94.378 31.7975 94.4085C52.7415 103.816 75.4241 103.816 96.1228 94.4085C96.1905 94.3762 96.2658 94.3636 96.3403 94.3721C96.4148 94.3805 96.4854 94.4098 96.5441 94.4565C97.1841 94.9791 97.8508 95.4965 98.5281 95.9925C98.5815 96.0315 98.6243 96.0832 98.6528 96.1429C98.6813 96.2026 98.6946 96.2684 98.6914 96.3344C98.6882 96.4005 98.6687 96.4647 98.6346 96.5214C98.6006 96.578 98.553 96.6254 98.4961 96.6591C95.3068 98.4938 91.9895 100.046 88.5068 101.336C88.4533 101.356 88.4046 101.386 88.3639 101.426C88.3231 101.466 88.2914 101.514 88.2707 101.567C88.25 101.62 88.2408 101.677 88.2438 101.734C88.2469 101.79 88.262 101.846 88.2881 101.896C90.2081 105.56 92.4055 109.048 94.8215 112.36C94.8717 112.428 94.9417 112.479 95.0218 112.506C95.102 112.533 95.1885 112.534 95.2695 112.51C106.759 109.052 117.582 103.677 127.28 96.6112C127.327 96.5781 127.367 96.5353 127.397 96.4856C127.426 96.4359 127.444 96.3805 127.451 96.3231C130.117 69.1551 122.981 45.5498 108.523 24.6325C108.487 24.5645 108.429 24.5115 108.357 24.4832ZM42.7735 82.0085C36.4695 82.0085 31.2695 76.3071 31.2695 69.3151C31.2695 62.3178 36.3681 56.6218 42.7735 56.6218C49.2268 56.6218 54.3788 62.3658 54.2775 69.3151C54.2775 76.3125 49.1788 82.0085 42.7735 82.0085V82.0085ZM85.3068 82.0085C78.9975 82.0085 73.8028 76.3071 73.8028 69.3151C73.8028 62.3178 78.8961 56.6218 85.3068 56.6218C91.7601 56.6218 96.9121 62.3658 96.8108 69.3151C96.8108 76.3125 91.7655 82.0085 85.3068 82.0085V82.0085Z" fill="black"/>
</g>
<defs>
<clipPath id="clip0_107_16449">
<rect width="128" height="128" fill="white" transform="translate(0 0.525879)"/>
</clipPath>
</defs>
</svg>
