<svg width="128" height="129" viewBox="0 0 128 129" fill="none" xmlns="http://www.w3.org/2000/svg">
<path fill-rule="evenodd" clip-rule="evenodd" d="M114.508 29.5136C116.09 33.7119 116.93 38.1535 116.99 42.6396C117.32 48.2822 117.321 50.1275 117.333 64.4105L117.333 64.6091C117.333 79.0797 117.256 80.8863 117.001 86.5845C116.913 91.0211 116.077 95.3925 114.52 99.5388C113.146 103.079 111.05 106.294 108.364 108.98C105.679 111.665 102.464 113.761 98.9236 115.135C94.7794 116.69 90.4009 117.53 85.9753 117.617C80.3185 117.948 78.4645 117.948 63.9998 117.948C49.5352 117.948 47.7286 117.871 42.0244 117.617C37.5901 117.471 33.2131 116.569 29.082 114.951C25.5403 113.58 22.3234 111.486 19.637 108.801C16.9505 106.117 14.8535 102.902 13.4801 99.3611C11.9222 95.2089 11.0871 90.8375 10.9982 86.4068C10.6665 80.7442 10.6665 78.8961 10.6665 64.4314C10.6665 49.9667 10.7435 48.1601 10.9982 42.456C11.0819 38.032 11.9212 33.6548 13.4801 29.5136C14.8512 25.9718 16.9466 22.7552 19.6322 20.0697C22.3177 17.3841 25.5343 15.2887 29.0761 13.9176C33.2185 12.3625 37.5947 11.5213 42.0185 11.4298C47.6752 11.104 49.5292 11.104 63.9939 11.104C78.4586 11.104 80.2652 11.1751 85.9634 11.4298C90.3892 11.5207 94.7674 12.3619 98.9117 13.9176C102.453 15.2897 105.669 17.3854 108.354 20.0709C111.04 22.7563 113.136 25.9724 114.508 29.5136ZM36.575 64.4018C36.575 79.5299 48.8303 91.7852 63.9584 91.7852C71.2209 91.7852 78.186 88.9002 83.3214 83.7648C88.4567 78.6294 91.3418 71.6643 91.3418 64.4018C91.3418 57.1393 88.4567 50.1742 83.3214 45.0388C78.186 39.9034 71.2209 37.0184 63.9584 37.0184C48.8303 37.0184 36.575 49.2737 36.575 64.4018ZM89.9872 41.9064C90.7622 42.227 91.5929 42.3916 92.4317 42.3908C95.956 42.3908 98.811 39.5358 98.811 36.0055C98.811 35.1674 98.646 34.3375 98.3252 33.5631C98.0045 32.7888 97.5344 32.0852 96.9417 31.4925C96.349 30.8999 95.6454 30.4298 94.8711 30.109C94.0968 29.7883 93.2668 29.6232 92.4287 29.6232C91.5906 29.6232 90.7606 29.7883 89.9863 30.109C89.2119 30.4298 88.5083 30.8999 87.9157 31.4925C87.323 32.0852 86.8529 32.7888 86.5322 33.5631C86.2114 34.3375 86.0463 35.1674 86.0463 36.0055C86.0456 36.8443 86.2102 37.6749 86.5308 38.45C86.8514 39.2251 87.3217 39.9293 87.9148 40.5224C88.5079 41.1155 89.2121 41.5858 89.9872 41.9064ZM81.7469 64.4025C81.7469 74.2263 73.7831 82.1901 63.9592 82.1901C54.1354 82.1901 46.1716 74.2263 46.1716 64.4025C46.1716 54.5786 54.1354 46.6148 63.9592 46.6148C73.7831 46.6148 81.7469 54.5786 81.7469 64.4025Z" fill="black"/>
</svg>
