<svg width="128" height="129" viewBox="0 0 128 129" fill="none" xmlns="http://www.w3.org/2000/svg">
<path d="M126.096 26.8566C121.643 28.83 116.859 30.1633 111.83 30.766C117.019 27.6609 120.901 22.7738 122.752 17.0166C117.877 19.9126 112.541 21.951 106.976 23.0433C103.234 19.0479 98.2779 16.3997 92.8766 15.5098C87.4754 14.6199 81.9314 15.5382 77.1055 18.122C72.2796 20.7058 68.4417 24.8106 66.1877 29.799C63.9337 34.7875 63.3897 40.3806 64.6402 45.71C54.7612 45.2139 45.0969 42.6462 36.2745 38.1735C27.4521 33.7007 19.6687 27.4228 13.4296 19.7473C11.2962 23.4273 10.0696 27.694 10.0696 32.238C10.0672 36.3286 11.0745 40.3566 13.0022 43.9645C14.93 47.5725 17.7184 50.6488 21.1202 52.9206C17.175 52.7951 13.3169 51.7291 9.86689 49.8113V50.1313C9.86649 55.8686 11.8511 61.4293 15.4839 65.8699C19.1167 70.3106 24.1739 73.3576 29.7976 74.494C26.1377 75.4844 22.3007 75.6303 18.5762 74.9206C20.1629 79.8572 23.2535 84.1741 27.4155 87.2669C31.5775 90.3597 36.6024 92.0736 41.7869 92.1686C32.986 99.0775 22.117 102.825 10.9282 102.809C8.94626 102.809 6.96597 102.693 4.99756 102.462C16.3548 109.764 29.5754 113.64 43.0776 113.625C88.7842 113.625 113.771 75.7686 113.771 42.9366C113.771 41.87 113.744 40.7926 113.696 39.726C118.556 36.2112 122.752 31.8587 126.086 26.8726L126.096 26.8566V26.8566Z" fill="black"/>
</svg>
